<?xml version="1.0" standalone="no"?>
<!DOCTYPE svg PUBLIC "-//W3C//DTD SVG 20010904//EN"
 "http://www.w3.org/TR/2001/REC-SVG-20010904/DTD/svg10.dtd">
<svg version="1.0" xmlns="http://www.w3.org/2000/svg"
 width="2183.000000pt" height="762.000000pt" viewBox="0 0 2183.000000 762.000000"
 preserveAspectRatio="xMidYMid meet">

<g transform="translate(0.000000,762.000000) scale(0.100000,-0.100000)"
fill="#000000" stroke="none">
<path d="M15625 7590 c-2673 -12 -4303 -14 -6715 -9 -1752 4 -4255 8 -5562 8
l-2377 1 -83 -26 c-447 -140 -793 -533 -868 -984 -7 -46 -10 -879 -8 -2810 l3
-2745 28 -95 c137 -467 511 -810 987 -906 80 -16 333 -16 4150 -6 4561 13
7314 19 12305 28 2220 4 3434 9 3459 16 79 20 217 87 318 154 232 154 409 386
498 652 65 195 61 -19 57 2982 -3 2991 2 2727 -61 2917 -135 405 -486 722
-913 822 -111 26 36 26 -5218 1z m-10796 -1235 c382 -49 742 -164 1063 -341
153 -85 428 -274 428 -296 0 -25 -36 -14 -120 37 -573 348 -1249 474 -1940
364 -335 -53 -667 -168 -930 -321 -142 -82 -318 -202 -415 -283 -126 -105
-309 -308 -405 -450 -49 -72 -51 -74 -107 -85 -135 -27 -189 -42 -301 -83 -64
-24 -130 -47 -146 -51 -27 -7 -28 -6 -21 21 10 44 82 180 143 272 128 193 340
431 522 583 103 87 292 216 436 297 330 187 740 311 1159 350 137 13 484 6
634 -14z m176 -305 c641 -55 1223 -307 1620 -705 126 -125 260 -289 322 -394
39 -64 62 -121 51 -121 -3 0 -72 25 -154 56 -82 31 -191 65 -243 76 -52 10
-104 24 -115 30 -12 6 -64 54 -116 107 -197 200 -374 329 -625 452 -590 288
-1297 344 -1935 152 -409 -122 -758 -322 -1056 -602 -76 -71 -140 -128 -142
-126 -13 13 138 206 243 311 450 451 1031 709 1730 767 92 8 308 6 420 -3z
m5854 -200 c46 -6 120 -20 165 -30 100 -24 133 -25 217 -3 57 14 73 15 108 4
51 -15 113 -69 147 -126 38 -65 74 -179 74 -232 -2 -143 -107 -252 -233 -241
-79 7 -121 32 -240 150 -72 70 -130 117 -166 135 -52 26 -65 28 -171 28 -102
0 -121 -3 -165 -25 -57 -27 -116 -86 -139 -136 -9 -19 -24 -51 -33 -71 -15
-31 -18 -66 -18 -183 0 -134 2 -151 29 -225 15 -44 39 -102 52 -130 30 -63
131 -178 151 -171 8 3 11 2 8 -4 -6 -10 57 -30 98 -30 20 0 26 -4 21 -12 -4
-8 -3 -10 2 -5 5 5 9 14 9 20 0 5 9 11 21 12 30 2 86 44 78 58 -4 7 -4 9 0 6
10 -10 80 57 73 68 -4 6 -34 14 -69 17 -82 10 -112 27 -131 75 -28 70 1 141
73 178 176 89 681 94 856 8 95 -47 135 -135 89 -197 -21 -28 -99 -68 -134 -68
-22 0 -51 -35 -51 -61 0 -37 -86 -186 -139 -243 -164 -173 -410 -266 -701
-266 -364 0 -678 140 -866 387 -73 97 -107 168 -140 294 -36 139 -31 268 15
406 36 110 51 140 105 213 65 88 114 138 195 194 236 166 530 241 810 206z
m4213 -24 c76 -36 187 -150 278 -283 39 -56 70 -104 70 -108 0 -3 11 -22 23
-43 13 -20 46 -77 72 -127 27 -49 67 -124 89 -165 68 -125 80 -147 202 -379
65 -123 129 -236 143 -252 14 -15 50 -35 79 -44 80 -26 97 -44 96 -100 -3
-134 -198 -185 -659 -171 -214 7 -322 21 -374 52 -61 36 -81 122 -38 161 12
12 45 32 72 45 35 16 51 30 53 46 2 12 -1 22 -7 22 -6 0 -19 8 -29 18 -10 10
-39 28 -65 40 -43 20 -61 22 -251 22 -112 0 -217 -3 -234 -6 -50 -10 -74 -39
-70 -87 3 -40 5 -42 56 -62 94 -36 121 -80 86 -144 -42 -77 -142 -105 -384
-105 -255 0 -353 24 -389 98 l-14 29 -14 -25 c-51 -83 -249 -138 -445 -124
-159 11 -250 44 -329 120 -52 49 -117 173 -145 276 -20 74 -26 82 -73 98 -73
26 -159 2 -195 -53 -15 -23 -16 -33 -6 -74 10 -42 18 -53 68 -87 73 -51 90
-83 71 -138 -26 -76 -130 -109 -379 -122 -158 -8 -364 8 -451 36 -73 22 -127
62 -145 106 -18 44 -6 75 44 111 143 104 136 77 140 542 4 390 -4 514 -32 570
-8 15 -45 47 -81 69 -78 49 -93 75 -76 131 12 43 45 69 122 97 38 14 116 17
569 19 324 2 550 0 590 -7 219 -34 375 -128 441 -266 28 -59 32 -78 33 -153 1
-84 -1 -90 -44 -175 -39 -77 -53 -95 -106 -134 -48 -35 -62 -52 -65 -76 -4
-29 -1 -32 64 -65 47 -23 88 -54 127 -96 51 -54 62 -73 88 -155 17 -51 35
-119 41 -150 18 -99 36 -120 121 -143 32 -9 70 -44 70 -64 1 -14 2 -14 14 1 7
10 49 34 92 54 97 44 124 68 177 163 88 155 300 581 347 696 56 138 67 179 75
296 9 118 27 167 79 218 64 63 126 82 251 78 85 -3 109 -7 157 -31z m1730 0
c46 -22 305 -220 587 -448 25 -21 55 -44 66 -52 23 -16 106 -26 127 -15 7 4
32 9 55 12 99 14 96 11 91 91 -5 94 -21 123 -90 163 -95 56 -116 98 -82 170
37 76 115 97 369 97 210 1 285 -10 347 -51 48 -32 67 -85 50 -141 -10 -33 -21
-44 -82 -77 -93 -51 -107 -79 -120 -246 -5 -68 -10 -308 -10 -534 0 -509 -7
-555 -94 -619 -34 -26 -97 -26 -146 -1 -19 10 -66 43 -104 74 -38 31 -80 65
-95 75 -14 11 -44 36 -67 55 -23 20 -69 59 -104 86 -35 28 -82 66 -105 85
-106 87 -346 274 -368 286 -11 7 -41 7 -80 2 -63 -8 -152 -36 -144 -45 3 -2 1
-19 -4 -36 -13 -43 8 -199 34 -255 15 -32 31 -49 66 -66 66 -34 86 -60 85
-110 -1 -57 -26 -91 -87 -120 -73 -35 -162 -49 -307 -50 -126 0 -253 20 -311
50 -50 25 -79 71 -79 123 0 52 5 59 97 121 29 19 56 45 62 57 25 54 33 219 28
522 -7 398 -20 462 -103 514 -114 73 -128 84 -137 111 -6 19 -6 41 2 66 27 92
169 130 466 126 121 -1 157 -5 187 -20z m3008 -10 c333 -78 539 -256 621 -538
33 -111 38 -351 11 -474 -59 -267 -256 -484 -522 -576 -153 -52 -144 -52 -785
-54 -330 -1 -616 2 -636 7 -54 13 -109 66 -116 111 -8 53 16 84 91 118 68 30
91 54 106 110 5 19 14 247 20 507 14 532 16 511 -61 553 -25 14 -57 34 -71 45
-90 73 -47 171 89 204 22 6 283 8 608 7 502 -2 579 -5 645 -20z m-15473 -892
c42 -6 42 -6 29 -33 -8 -14 -67 -87 -131 -161 -65 -74 -160 -186 -213 -247
l-96 -113 -597 0 c-369 0 -627 -4 -676 -11 -92 -12 -236 -58 -301 -96 -72 -42
-144 -120 -183 -198 -32 -66 -34 -75 -34 -175 0 -97 2 -110 30 -164 75 -149
249 -257 460 -287 85 -12 863 -25 929 -15 l46 7 0 130 0 129 -575 0 c-316 0
-575 3 -575 8 0 16 37 61 139 167 59 61 139 149 179 197 49 58 84 90 105 97
21 7 269 10 737 8 l705 -2 3 -643 2 -643 -872 4 c-959 4 -954 3 -1182 67 -235
66 -405 162 -561 315 -198 195 -289 407 -288 665 2 174 45 318 138 459 215
325 617 511 1155 534 131 5 1589 6 1627 1z m332 -3 c22 -6 20 -10 -54 -100
-42 -52 -105 -126 -139 -165 -35 -39 -101 -118 -148 -176 l-84 -105 -112 -3
c-69 -2 -112 1 -112 7 0 12 52 77 229 285 187 220 219 254 244 259 35 7 150 6
176 -2z m298 -48 c-15 -21 -75 -94 -134 -162 -60 -68 -142 -167 -183 -220 -42
-53 -87 -101 -100 -108 -28 -14 -220 -18 -220 -5 0 14 51 81 121 158 79 88
196 225 267 313 l53 66 102 5 c56 3 106 2 111 -2 5 -4 -2 -24 -17 -45z m1243
46 c339 -24 540 -72 750 -180 369 -190 581 -544 541 -903 -26 -224 -111 -396
-279 -565 -212 -213 -496 -339 -862 -382 -113 -13 -324 -15 -1175 -11 l-550 2
2 638 3 637 360 3 360 2 0 -370 0 -370 368 0 c512 0 662 16 802 86 102 51 173
120 218 213 35 72 37 82 37 171 0 123 -24 186 -103 272 -89 96 -186 149 -332
184 -67 16 -159 18 -896 23 l-822 6 176 210 c96 116 197 238 224 272 l49 62
132 4 c336 7 866 6 997 -4z m4487 -335 c-3 -3 -12 -4 -19 -1 -8 3 -5 6 6 6 11
1 17 -2 13 -5z m4063 -1374 c158 -39 349 -148 456 -262 112 -118 179 -235 224
-391 77 -266 -1 -537 -211 -731 -202 -187 -475 -288 -779 -288 -314 0 -569
104 -761 312 -91 97 -159 218 -191 340 -28 106 -27 296 0 401 84 315 382 562
767 634 116 21 381 14 495 -15z m1694 -5 c110 -22 157 -49 175 -100 21 -64 6
-88 -84 -130 -116 -55 -109 -31 -113 -435 -2 -190 1 -402 6 -472 8 -121 10
-130 39 -165 39 -49 99 -66 203 -58 95 7 135 18 190 53 39 25 52 43 97 135 29
58 61 111 72 116 37 20 101 13 139 -15 124 -95 86 -381 -70 -530 -74 -72 -92
-75 -283 -49 -84 11 -227 15 -610 15 -329 0 -514 4 -540 11 -60 16 -85 44 -85
95 0 48 12 61 110 117 87 51 89 57 96 373 7 275 -7 626 -26 696 -13 46 -48 74
-118 94 -98 29 -126 84 -79 155 44 67 169 104 392 117 152 9 385 -2 489 -23z
m1386 20 c103 -6 204 -26 251 -51 35 -18 63 -75 53 -107 -4 -12 -20 -39 -36
-60 -24 -30 -28 -40 -18 -52 7 -8 16 -13 20 -10 5 3 11 1 14 -4 4 -5 23 -15
44 -21 20 -7 51 -18 67 -26 110 -48 108 -48 133 -19 12 14 22 38 22 53 0 24
-21 68 -40 82 -16 11 -30 51 -30 80 0 44 57 95 130 118 83 26 512 25 586 -1
73 -25 99 -56 99 -119 0 -68 -24 -87 -146 -117 -52 -13 -107 -32 -124 -43 -16
-12 -114 -105 -217 -209 -143 -145 -193 -201 -215 -246 l-28 -58 0 -225 c0
-283 6 -310 78 -348 88 -48 112 -74 112 -126 0 -85 -68 -128 -250 -158 -115
-18 -515 -15 -623 5 -157 30 -242 86 -242 162 0 45 18 64 95 101 89 42 110 73
125 187 13 99 12 333 -1 381 -16 59 -82 142 -264 331 -173 181 -174 181 -331
250 -85 37 -105 85 -64 153 36 59 155 90 390 101 152 8 218 7 410 -4z m-6050
-23 c63 -31 109 -97 241 -347 57 -108 114 -191 136 -197 39 -10 134 -8 172 3
46 14 64 37 135 175 100 193 191 320 250 351 63 33 130 43 283 43 166 0 233
-10 305 -46 60 -30 78 -57 78 -115 0 -44 -3 -49 -55 -94 -31 -26 -62 -59 -69
-73 -13 -25 -26 -131 -42 -330 -6 -75 9 -483 22 -642 6 -60 9 -67 49 -105 23
-22 57 -50 74 -63 61 -46 31 -140 -57 -175 -75 -30 -193 -42 -402 -41 -224 2
-328 16 -393 54 -44 26 -57 47 -57 91 0 27 10 42 61 89 68 63 87 110 59 143
-21 26 -98 70 -109 63 -5 -4 -12 -2 -16 4 -3 5 -21 10 -39 10 -31 0 -34 -3
-110 -155 -111 -218 -164 -268 -234 -220 -25 18 -80 108 -167 274 -33 63 -67
116 -75 117 -78 15 -204 33 -208 29 -2 -1 1 -50 6 -108 10 -115 15 -125 87
-163 84 -45 98 -97 42 -152 -17 -17 -52 -38 -76 -46 -111 -40 -374 -45 -491
-10 -138 40 -160 153 -40 201 88 34 86 30 115 361 19 215 22 614 5 697 -15 76
-22 85 -98 130 -76 44 -97 72 -89 122 18 110 157 154 472 150 175 -2 194 -4
235 -25z m-9743 -266 c132 -55 227 -85 338 -106 70 -14 81 -22 142 -110 56
-78 185 -229 245 -286 81 -77 344 -280 429 -331 343 -206 736 -339 1155 -388
151 -18 493 -21 639 -5 376 41 730 150 1038 320 303 168 555 365 714 558 42
51 78 90 80 88 2 -2 -8 -28 -23 -57 -80 -160 -354 -457 -566 -617 -627 -471
-1466 -678 -2245 -552 -511 83 -972 284 -1363 596 -106 85 -319 296 -392 389
-144 184 -261 370 -304 483 -24 62 -27 72 -21 72 2 0 62 -24 134 -54z m4862
-18 c-79 -152 -342 -433 -552 -589 -213 -159 -519 -311 -788 -393 -716 -216
-1437 -165 -2084 149 -209 102 -496 296 -473 320 4 4 71 -28 150 -72 209 -115
348 -175 558 -237 881 -262 1912 -18 2567 607 l103 99 107 20 c60 10 176 41
258 68 83 27 154 50 158 50 4 0 2 -10 -4 -22z"/>
<path d="M19271 5539 c-21 -23 -21 -25 -21 -529 l0 -506 28 -33 c24 -28 35
-33 88 -38 131 -12 227 28 298 124 63 85 85 167 93 349 11 241 -24 405 -111
528 -57 81 -137 119 -262 124 -85 4 -93 3 -113 -19z"/>
<path d="M14303 2867 c-43 -16 -102 -72 -118 -111 -42 -100 -18 -303 57 -486
59 -143 81 -185 136 -252 81 -102 170 -137 270 -109 47 14 87 56 118 125 24
53 26 67 21 140 -9 127 -90 418 -130 465 -8 9 -28 41 -45 72 -32 56 -104 124
-154 146 -43 19 -120 24 -155 10z"/>
</g>
</svg>
